<svg xmlns="http://www.w3.org/2000/svg" width="20" height="18" viewBox="0 0 20 18">
    <g fill="none" fill-rule="evenodd">
        <path fill="#FFF" fill-rule="nonzero" d="M10.74 8.822V5.699c0-.275-.226-.497-.503-.497h-.474c-.277 0-.503.222-.503.497v3.123C6.85 9.175 5 11.227 5 13.707c0 2.728 2.239 4.94 5 4.94s5-2.212 5-4.94c0-2.48-1.85-4.532-4.26-4.885zm-.723 8.362c-1.916 0-3.47-1.535-3.47-3.428s1.554-3.427 3.47-3.427c1.915 0 3.469 1.534 3.469 3.427s-1.553 3.428-3.47 3.428z" transform="translate(0 -1)"/>
        <path fill="#FFF" d="M10 1C4.508 1 .05 5.525 0 11.126c0 .44.35.798.781.798.432 0 .782-.357.782-.798.05-4.72 3.808-8.529 8.437-8.529 4.63 0 8.387 3.81 8.437 8.529 0 .44.35.798.782.798.431 0 .781-.357.781-.798C19.95 5.525 15.492 1 10 1z" transform="translate(0 -1)"/>
        <path fill="#D8D8D8" fill-opacity="0" d="M0 0H20V20H0z" transform="translate(0 -1)"/>
    </g>
</svg>
