<svg width="20" height="20" xmlns="http://www.w3.org/2000/svg">

 <g>
  <title>background</title>
  <rect fill="none" id="canvas_background" height="22" width="22" y="-1" x="-1"/>
 </g>
 <g>
  <title>Layer 1</title>
  <path id="svg_1" d="m16,11.758c0,-0.861 -0.165,-1.696 -0.492,-2.48c-0.016,-0.048 -0.034,-0.096 -0.054,-0.141c-0.028,-0.063 -1.168,-1.242 -2.025,-2.084c-1.315,-1.293 -2.279,-4.41 -2.581,-4.696c-0.24,-0.23 -0.552,-0.357 -0.88,-0.357l-0.023,0l-0.022,0.002c-0.481,0.05 -0.983,0.51 -1.41,0.955l-0.064,0.065c-1.02,1.504 -1.919,2.865 -2.327,3.448c-0.408,0.583 -1.454,2.399 -1.575,2.667c-0.021,0.046 -0.04,0.094 -0.054,0.143c-0.327,0.784 -0.493,1.618 -0.493,2.478c0,3.442 2.691,6.242 6,6.242s6,-2.8 6,-6.242z" fill-rule="evenodd" fill="#BEBEBE"/>
 </g>
</svg>