<svg xmlns="http://www.w3.org/2000/svg" width="18" height="18" viewBox="0 0 18 18">
    <g fill="#FFF" fill-rule="evenodd">
        <path d="M12.627 18H3.12C1.4 18 0 16.617 0 14.92V3.083C-.002 1.383 1.399 0 3.12 0h9.507c1.722 0 3.12 1.383 3.12 3.08v.352c0 .373-.305.675-.683.675-.377 0-.683-.302-.683-.675v-.35c0-.955-.787-1.732-1.756-1.732H3.12c-.968 0-1.755.777-1.755 1.733V14.92c0 .955.787 1.732 1.755 1.732h9.507c.969 0 1.756-.777 1.756-1.732v-6.3c0-.372.306-.674.683-.674.378 0 .684.302.684.675v6.299c-.002 1.697-1.4 3.08-3.123 3.08z"/>
        <path fill-rule="nonzero" d="M.685 15.75c-.117 0-.233-.03-.341-.092-.329-.189-.441-.61-.253-.94.56-.974 1.6-1.578 2.719-1.578h9.057c.38 0 .687.308.687.689 0 .38-.307.69-.687.69H2.81c-.63 0-1.214.34-1.528.886-.124.214-.351.345-.597.345zm16.63-6.787c-.182 0-.357-.072-.486-.202l-2.326-2.336c-.267-.268-.267-.706 0-.974s.703-.268.97 0L17.8 7.787c.267.268.267.706 0 .974-.134.136-.31.202-.485.202z"/>
        <path d="M14.946 6.75c-.184 0-.361-.073-.491-.204-.273-.27-.273-.712 0-.983l2.357-2.359c.27-.272.713-.272.983 0 .273.27.273.713 0 .983l-2.357 2.359c-.13.13-.307.204-.492.204z"/>
        <path fill-rule="nonzero" d="M13.45 4.368c-.387 0-.7-.307-.7-.684 0-.378.313-.684.7-.684h3.85c.387 0 .7.306.7.684 0 .377-.313.684-.7.684h-3.85zm0 4.632c-.387 0-.7-.306-.7-.684 0-.378.313-.684.7-.684h3.85c.387 0 .7.306.7.684 0 .378-.313.684-.7.684h-3.85z"/>
        <path d="M12.75 14.25c-.414 0-.75-.31-.75-.694V1.444c0-.383.336-.694.75-.694s.75.31.75.694v12.11c0 .385-.336.696-.75.696z"/>
    </g>
</svg>
