<svg xmlns="http://www.w3.org/2000/svg" width="20" height="18" viewBox="0 0 20 18">
    <g fill="none" fill-rule="evenodd">
        <path fill="#5295FF" fill-rule="nonzero" d="M14.14 2.62c-.657 1.609-2.263 2.745-4.14 2.745-1.877 0-3.483-1.136-4.14-2.745H3.6L2.02 4.656l1.478 1.11c.59.443.935 1.13.935 1.857v9.757h11.134V7.623c0-.728.345-1.414.935-1.857l1.478-1.11L16.4 2.62h-2.26zm-1.653 0H7.513c.535.787 1.45 1.305 2.487 1.305 1.038 0 1.952-.518 2.487-1.305zM3.144 1h13.712c.23 0 .446.105.585.284l2.41 3.105c.244.316.182.766-.139 1.007l-2.204 1.656c-.18.136-.287.347-.287.571V18.28c0 .398-.33.72-.735.72H3.514c-.406 0-.735-.322-.735-.72V7.623c0-.224-.106-.435-.287-.571L.288 5.396C-.033 5.155-.095 4.705.15 4.39l2.409-3.105c.139-.179.355-.284.585-.284z" transform="translate(0 -1)"/>
        <path fill="#D8D8D8" fill-opacity="0" d="M0 0H20V20H0z" transform="translate(0 -1)"/>
    </g>
</svg>
