<svg width="20" height="20" xmlns="http://www.w3.org/2000/svg">

 <g>
  <title>background</title>
  <rect fill="none" id="canvas_background" height="22" width="22" y="-1" x="-1"/>
 </g>
 <g>
  <title>Layer 1</title>
  <g id="svg_1" fill-rule="evenodd" fill="#5295FF">
   <path id="svg_3" d="m17.857,4.286l-2.143,0l0,-2.143c0,-1.143 -1,-2.143 -2.143,-2.143l-11.428,0c-1.143,0 -2.143,1 -2.143,2.143l0,11.427c0,1.143 1,2.143 2.143,2.143l2.143,0l0,2.143c0,1.143 1,2.143 2.143,2.143l11.428,0c1.143,0.001 2.143,-0.999 2.143,-2.142l0,-11.427c0,-1.143 -1,-2.143 -2.143,-2.143l0,-0.001zm-15.714,10.001c-0.429,0 -0.714,-0.286 -0.714,-0.715l0,-11.429c0,-0.429 0.285,-0.714 0.714,-0.714l11.427,0c0.429,0 0.715,0.285 0.715,0.714l0,2.143l-7.857,0c-1.143,0 -2.143,1 -2.143,2.143l0,7.857l-2.142,0l0,0.001zm16.428,3.571c0,0.429 -0.285,0.714 -0.714,0.714l-11.427,0c-0.429,0 -0.715,-0.285 -0.715,-0.714l0,-11.428c0,-0.429 0.286,-0.715 0.715,-0.715l11.428,0c0.429,0 0.714,0.286 0.714,0.715l0,11.428l-0.001,0z" fill-rule="nonzero"/>
  </g>
 </g>
</svg>