<svg xmlns="http://www.w3.org/2000/svg" width="15" height="15" viewBox="0 0 15 15">
    <g fill="none" fill-rule="evenodd">
        <path fill="none" d="M0 0H30V30H0z" transform="translate(-7 -7)"/>
        <path fill="#BEBEBE" d="M15.661 14.5l6.108-6.11c.308-.312.308-.813 0-1.125l-.034-.034c-.311-.308-.813-.308-1.125 0l-6.107 6.119-6.107-6.119c-.312-.308-.813-.308-1.125 0l-.034.034c-.151.148-.237.35-.237.563 0 .211.086.414.237.562l6.108 6.11-6.107 6.11c-.308.312-.308.813 0 1.125l.034.034c.312.308.813.308 1.125 0l6.106-6.111 6.107 6.11c.312.308.814.308 1.125 0l.034-.034c.308-.312.308-.813 0-1.125l-6.108-6.11z" transform="translate(-7 -7)"/>
    </g>
</svg>
