<svg xmlns="http://www.w3.org/2000/svg" width="22" height="22" viewBox="0 0 22 22">
    <g fill="none" fill-rule="evenodd">
        <g fill="#BEBEBE" fill-rule="nonzero">
            <g>
                <path d="M19.354 12.833h-.007l-.068-.068v-1.96h-9.196v-1.45h9.196V7.334L22 9.981v.008l-2.646 2.844zM14.242 1.298H3.254L7.469 3.35c.56.272 1.015.94 1.015 1.493l.067 12.164c.05-.011.1-.018.15-.018h5.56v-4.285h1.322v4.934c0 .36-.296.652-.663.652H8.702c-.048-.002-.097-.009-.145-.019l.02 3.528c0 .185-.152.255-.34.157L.827 17.918c-.457-.237-.824-.799-.823-1.253L.026.827C-.01.704-.009.572.034.45.065.21.219.06.432.04.507.014.584 0 .662 0h14.24c.367 0 .662.291.662.65 0 .043-.005.087-.013.13.007.043.013.086.013.132v6.224h-1.322V1.298z" transform="translate(-1248 -163) translate(1248 163)"/>
            </g>
        </g>
    </g>
</svg>
