<svg xmlns="http://www.w3.org/2000/svg" width="20" height="20" viewBox="0 0 20 20">
    <g fill="none" fill-rule="evenodd">
        <path fill="#BEBEBE" fill-rule="nonzero" d="M16.857 10.571v5.14c0 .633-.521 1.146-1.145 1.146H4.289c-.632-.002-1.144-.514-1.146-1.146V4.288c0-.632.521-1.145 1.146-1.145h6.282c.316 0 .572-.256.572-.572 0-.315-.256-.571-.572-.571H4.293c-.609 0-1.192.241-1.622.671C2.241 3.101 2 3.684 2 4.293v11.414C2 16.975 3.026 18 4.293 18h11.414c.609 0 1.192-.241 1.622-.671.43-.43.671-1.013.671-1.622v-5.136c0-.315-.256-.571-.571-.571-.316 0-.572.256-.572.571zM8.93 11.903l8.687-8.687c.109-.107.17-.253.17-.405.002-.152-.059-.299-.166-.406-.227-.22-.588-.22-.813.003l-8.686 8.686c-.108.107-.17.253-.17.405 0 .153.06.3.167.407.216.217.586.222.811-.003z" transform="translate(-2 -2)"/>
        <path fill="#D8D8D8" fill-opacity="0" d="M0 0H20V20H0z" transform="translate(-2 -2)"/>
    </g>
</svg>
