<svg xmlns="http://www.w3.org/2000/svg" width="80" height="80" viewBox="0 0 80 80"><defs><style>.a{fill:#e8484a;}.b{fill:#fff;stroke:#fff;stroke-width:3px;}</style></defs><g transform="translate(-0.086 -0.086)"><circle class="a" cx="40" cy="40" r="40" transform="translate(0.086 0.086)"/></g><g transform="translate(20.206 20.202)"><path class="b" d="M811.412,636.547a2.826,2.826,0,0,1-2-.826l-33.938-33.938a2.828,2.828,0,0,1,4-4l33.938,33.938a2.826,2.826,0,0,1-2,4.825Z" transform="translate(-774.65 -596.953)"/><path class="b" d="M777.474,636.547a2.826,2.826,0,0,1-2-4.825l33.938-33.938a2.828,2.828,0,0,1,4,4l-33.938,33.938A2.84,2.84,0,0,1,777.474,636.547Z" transform="translate(-774.65 -596.953)"/></g></svg>