<svg xmlns="http://www.w3.org/2000/svg" width="20" height="20" viewBox="0 0 20 20">
    <g fill="none" fill-rule="evenodd">
        <g fill="#BEBEBE" fill-rule="nonzero">
            <g>
                <g>
                    <path d="M19.302 19H5.698C5.312 19 5 18.552 5 18s.312-1 .698-1h13.604c.386 0 .698.448.698 1s-.312 1-.698 1zm-13.611.048H.994c-.549 0-.994-.453-.994-1.01v-4.775c.001-.268.107-.524.293-.712L12.355.284c.395-.379 1.012-.379 1.407 0l4.696 4.775c.187.19.292.446.292.714 0 .269-.105.526-.292.715L6.396 18.75c-.186.19-.44.298-.705.298zm-3.993-1.759h3.435L16.698 5.542l-3.436-3.49L1.698 13.798v3.49z" transform="translate(-260 -269) translate(240 250) translate(20 19)"/>
                </g>
            </g>
        </g>
    </g>
</svg>
