<svg xmlns="http://www.w3.org/2000/svg" width="18" height="20" viewBox="0 0 18 20">
    <g fill="none" fill-rule="evenodd">
        <path fill="#FFF" fill-rule="nonzero" d="M5.495 4.098h8.416c.41 0 .742.41.742.91 0 .502-.334.908-.742.908H5.495c-.41 0-.742-.409-.742-.909 0-.503.332-.909.742-.909zm-.003 4.27h5.722c.409 0 .739.41.739.91s-.332.91-.739.91H5.492c-.409 0-.739-.41-.739-.91s.33-.91.739-.91zm.024 4.272h7.474c.422 0 .763.409.763.909s-.343.909-.763.909H5.516c-.422 0-.763-.41-.763-.91s.34-.908.763-.908zm5.492 5.851c.43 0 .776.33.776.734 0 .404-.349.735-.776.735H3.887C2.284 19.96 1 18.68 1 17.123V2.837C1.002 1.28 2.284 0 3.887 0h12.226C17.716 0 19 1.279 19 2.837v9.337c0 .406-.35.734-.777.734-.43 0-.776-.33-.776-.734V2.837c0-.763-.604-1.366-1.331-1.366H3.886c-.724 0-1.33.603-1.33 1.366v14.288c0 .763.604 1.366 1.33 1.366h7.122zm5.247-2.469h1.942c.418 0 .756.32.756.715 0 .395-.338.714-.756.714h-1.942v1.835c0 .395-.338.714-.755.714-.418 0-.756-.32-.756-.714V17.45h-1.942c-.418 0-.756-.32-.756-.714 0-.395.338-.715.756-.715h1.942v-1.837c0-.395.338-.714.756-.714.417 0 .755.32.755.714v1.837z" transform="translate(-1)"/>
        <path fill="#D8D8D8" fill-opacity="0" d="M0 0H20V20H0z" transform="translate(-1)"/>
    </g>
</svg>
