<svg xmlns="http://www.w3.org/2000/svg" width="17" height="20" viewBox="0 0 17 20">
    <g fill="none" fill-rule="evenodd">
        <g fill="#BEBEBE">
            <path d="M271 544.24V547c0 1.105.895 2 2 2h3v-.393l-5-4.366zm5 6.648c-.184.073-.382.112-.584.112H271c-1.105 0-2-.895-2-2v-4.487c0-.18.031-.353.09-.513H264c-.552 0-1 .448-1 1v14c0 .552.448 1 1 1h11c.552 0 1-.448 1-1v-8.112zM271.141 542l6.859 5.755V561c0 .552-.448 1-1 1h-15c-.552 0-1-.448-1-1v-18c0-.552.448-1 1-1h9.141zM265 553h9v2h-9v-2zm0 3h9v2h-9v-2z" transform="translate(-261 -542)"/>
        </g>
    </g>
</svg>
