<svg xmlns="http://www.w3.org/2000/svg" width="20" height="20" viewBox="0 0 20 20">
    <g fill="none" fill-rule="evenodd">
        <g fill="#BEBEBE">
            <g>
                <path d="M19 6h-2V3c0-.552-.448-1-1-1H3c-.552 0-1 .448-1 1v14c0 .552.448 1 1 1h4v2H2c-1.105 0-2-.895-2-2V2C0 .895.895 0 2 0h15c1.105 0 2 .895 2 2v4zM4 5h7v2H4V5zm0 4h4v2H4V9z" transform="translate(-260 -804) translate(260 804)"/>
                <path d="M11.873 14.388C10.748 13.68 10 12.428 10 11c0-2.21 1.79-4 4-4s4 1.79 4 4c0 1.427-.748 2.68-1.873 3.388C18.391 15.247 20 17.435 20 20h-2c0-2.21-1.79-4-4-4s-4 1.79-4 4H8c0-2.565 1.61-4.753 3.873-5.612zM14 13c1.105 0 2-.895 2-2s-.895-2-2-2-2 .895-2 2 .895 2 2 2z" transform="translate(-260 -804) translate(260 804)"/>
            </g>
        </g>
    </g>
</svg>
