<svg xmlns="http://www.w3.org/2000/svg" width="18" height="18" viewBox="0 0 18 18">
    <path fill="#bebebe" d="M9 0C4.03 0 0 4.027 0 8.993c0 4.588 3.439 8.373 7.88 8.924.251.053.556.083.919.083.103 0 .2-.005.295-.015C14.022 17.935 18 13.928 18 8.993 18 4.027 13.971 0 9 0zM7.664 16.586c-3.623-.633-6.377-3.791-6.377-7.593 0-.545.057-1.077.165-1.59.333.356 1.118.347 1.31-.185.342.205.802.242.802.65 0 1.347.048 2.791 1.273 2.814.034 0 .681.244.99 1.044.107.277.529 0 .991 0 .231 0 0 .39 0 1.23s1.807 2.13 1.807 2.13c-.008.554.015 1.003.06 1.36-.407-.006-.75.048-1.02.14zm3.237-.12c-.04-.196-.215-.304-.535-.22.255-1.084.378-1.692.91-2.153.77-.667.092-1.408-.493-1.32-.462.068-.17-.572-.582-.607-.412-.036-.95-.854-1.543-1.136-.314-.15-.622-.55-1.107-.567-.43-.017-1.057.363-1.057.07 0-.943-.095-1.616-.115-1.885-.016-.215-.142-.072.44-.058.315.009.16-.635.474-.66.307-.024 1.038.288 1.225.164.173-.117 1.274 2.887 1.274.496 0-.284-.147-.778 0-1.046.58-1.062 1.126-1.928 1.077-2.054-.029-.071-.595-.13-1.049.022-.153.051.05.291-.171.342-.824.19-1.551-.222-1.297-.61.261-.397 1.207-.173 1.29-.97.047-.455.087-.985.114-1.377 1.108.173.987-1.439-.663-1.612 3.336.04 6.162 2.193 7.198 5.182-.052-.048-.113-.077-.184-.084-.497-1.245-1.707-.344-1.298.754-2.198 1.69-1.635 2.869-.913 3.545.38.354.743.888.979 1.271-.257.75.946.45 1.54-.821-.755 2.617-2.86 4.662-5.514 5.333zm5.638-8.66c.008-.153.01-.297.006-.432.113.532.17 1.075.17 1.619v.127c-.026-.442-.085-.882-.176-1.315z"/>
</svg>
