<svg xmlns="http://www.w3.org/2000/svg" width="18" height="18" viewBox="0 0 18 18">
    <path fill="#FFF" d="M15.835 10.5h-.006l-.055-.056V8.841H8.25V7.655h7.524V6L18 8.166v.007L15.835 10.5zm-4.182-9.438h-8.99L6.11 2.74c.459.222.83.77.83 1.222l.056 9.952c.04-.01.08-.015.122-.015h4.55v-3.505h1.081v4.036c0 .295-.242.534-.543.534H7.12c-.04-.002-.08-.007-.119-.016l.017 2.887c0 .15-.125.208-.278.128L.676 14.66c-.374-.194-.674-.653-.673-1.025L.02.677c-.03-.101-.028-.21.007-.31C.053.172.179.05.354.034.414.012.478 0 .54 0h11.652c.3 0 .541.238.541.531 0 .036-.004.072-.01.107.006.035.01.07.01.108V5.84h-1.081V1.062z"/>
</svg>
