<svg xmlns="http://www.w3.org/2000/svg" width="45" height="40" viewBox="0 0 45 40">
    <g fill="none" fill-opacity=".3" fill-rule="evenodd">
        <g fill="#BEBEBE" fill-rule="nonzero">
            <g>
                <path d="M42.24 29.594v-.037c-.14-.092-.062-.013 0 .037zM41.295 0H3.706C1.66 0 0 1.817 0 4.057v31.886C0 38.183 1.66 40 3.706 40h37.588C43.34 40 45 38.184 45 35.943V4.057C45 1.817 43.34 0 41.294 0zM2.813 3.81c0-.598.391-.953.937-.953h37.5c.546 0 .938.355.938.953v20.952l-8.649-7.935c-.476-.474-1.204-.498-1.727-.076l-10.846 8.912-5.754-4.48c-.455-.374-1.09-.374-1.569 0l-10.83 8.34V3.81zm39.375 25.73v6.65c0 .597-.392.953-.938.953H3.75c-.546 0-.938-.355-.938-.953v-2.857l11.628-9.09 11.004 8.588c.615.473 1.479.324 1.911-.348.432-.672.296-1.618-.319-2.09l-3.751-2.914 9.277-7.616 9.625 9.66c.04.045.023.035 0 .017zM19.214 11.7c0-3.436-2.546-6.224-5.684-6.224-3.139 0-5.686 2.788-5.686 6.223s2.547 6.222 5.686 6.222c3.138 0 5.684-2.787 5.684-6.222zm-5.684 3.235c-1.637 0-2.957-1.444-2.957-3.236 0-1.793 1.32-3.236 2.957-3.236 1.637 0 2.955 1.443 2.955 3.236 0 1.792-1.318 3.236-2.955 3.236z" transform="translate(-628 -211) translate(628 211)"/>
            </g>
        </g>
    </g>
</svg>
