<svg xmlns="http://www.w3.org/2000/svg" width="18" height="18" viewBox="0 0 18 18">
    <g fill-rule="evenodd">
        <path fill-opacity="0" d="M0 0H20V20H0z" transform="translate(-1 -1)"/>
        <path fill-rule="nonzero" d="M10 1c4.968 0 9 3.597 9 8.069 0 2.887-2.224 5.176-5.083 5.277l-.196.003h-1.674c-.398 0-.768.37-.768.768 0 .129.044.239.202.48l.043.065.055.059c.241.278.377.582.424.937l.016.156.005.162c0 1.09-.932 2.024-2.024 2.024-2.39.009-4.684-.936-6.374-2.626C1.936 14.684.991 12.39 1 10c0-4.998 4.002-9 9-9zm0 1.256c-2.057-.01-4.032.804-5.486 2.258C3.06 5.968 2.247 7.944 2.256 10c-.01 2.057.804 4.032 2.258 5.486 1.454 1.454 3.43 2.267 5.486 2.258.398 0 .768-.37.768-.768 0-.197-.032-.308-.132-.426l-.055-.06-.077-.093c-.343-.51-.48-.806-.48-1.28 0-1.048.858-1.949 1.892-2.019l.131-.005h1.674c2.26 0 4.023-1.764 4.023-4.024 0-3.744-3.44-6.813-7.744-6.813zM5.396 7.488c.67 0 1.256.586 1.256 1.256 0 .668-.586 1.256-1.256 1.256S4.14 9.412 4.14 8.744c0-.67.586-1.256 1.256-1.256zm9.21 0c.67 0 1.255.586 1.255 1.256 0 .668-.586 1.256-1.255 1.256-.67 0-1.256-.588-1.256-1.256 0-.67.586-1.256 1.256-1.256zM7.908 4.14c.67 0 1.256.586 1.256 1.255 0 .67-.586 1.256-1.256 1.256s-1.256-.586-1.256-1.256.585-1.255 1.256-1.255zm4.186 0c.67 0 1.256.586 1.256 1.255 0 .67-.587 1.256-1.257 1.256-.67 0-1.256-.586-1.256-1.256s.586-1.255 1.256-1.255z" transform="translate(-1 -1)"/>
        <path fill-opacity="0" d="M0 0H20V20H0z" transform="translate(-1 -1)"/>
    </g>
</svg>
