<svg xmlns="http://www.w3.org/2000/svg" width="22" height="21" viewBox="0 0 22 21">
    <path fill="#BEBEBE" d="M21.22 21H.78C.349 21 0 20.65 0 20.217c0-.433.349-.783.779-.783H21.22c.43 0 .779.35.779.783 0 .432-.349.783-.779.783zM2.24 13.227l-.147 3.221 3.203-.147 11.35-11.426-3.057-3.074L2.24 13.227zm-.926 4.729c-.199 0-.39-.081-.527-.226-.138-.144-.211-.339-.203-.538l.195-4.317c.01-.181.087-.352.213-.48L13.074.216c.134-.141.321-.22.515-.216.195-.004.382.075.516.216l4.088 4.112c.14.137.218.323.218.519 0 .195-.079.382-.218.518l-12.06 12.18c-.127.129-.297.206-.477.215l-4.284.196h-.058z"/>
</svg>
