<svg xmlns="http://www.w3.org/2000/svg" width="88" height="84" viewBox="0 0 88 84">
    <g fill="none" fill-rule="evenodd">
        <path fill="#E5E5E5" d="M70 37h-4V8c0-2.21-1.79-4-4-4H8C5.79 4 4 5.79 4 8v68c0 2.21 1.79 4 4 4h34v4H8c-4.418 0-8-3.582-8-8V8c0-4.418 3.582-8 8-8h54c4.418 0 8 3.582 8 8v29z"/>
        <path fill="#E5E5E5" d="M40 15H60V19H40zM40 31H60V35H40zM9 63H45V67H9zM9 47H47V51H9zM57.073 54.902C55.145 57.425 54 60.579 54 64c0 8.284 6.716 15 15 15 3.421 0 6.575-1.145 9.098-3.073L57.073 54.902zm2.829-2.829l21.025 21.025C82.855 70.575 84 67.421 84 64c0-8.284-6.716-15-15-15-3.421 0-6.575 1.145-9.098 3.073zM69 83c-10.493 0-19-8.507-19-19s8.507-19 19-19 19 8.507 19 19-8.507 19-19 19z"/>
        <path fill="#E6E6E6" d="M18.386 29.729l12.875-12.38 2.942 2.877-12.85 12.355.188.18-2.97 2.906L9 26.468l2.97-2.905 6.416 6.166z"/>
    </g>
</svg>
