<svg width="30" height="30" xmlns="http://www.w3.org/2000/svg">

 <g>
  <title>background</title>
  <rect fill="none" id="canvas_background" height="602" width="802" y="-1" x="-1"/>
 </g>
 <g>
  <title>Layer 1</title>
  <g id="svg_1" fill-rule="evenodd" fill="#FF6262">
   <path id="svg_3" d="m19.865,20.672c0.326,0.002 0.62,-0.194 0.746,-0.495c0.125,-0.3 0.055,-0.648 -0.176,-0.877l-9.067,-9.067c-0.314,-0.312 -0.822,-0.31 -1.135,0.004c-0.312,0.315 -0.31,0.823 0.004,1.135l9.058,9.06c0.15,0.152 0.355,0.239 0.57,0.24z" fill-rule="nonzero"/>
   <path id="svg_4" d="m10.8,20.672c0.212,0.001 0.417,-0.083 0.569,-0.233l9.067,-9.064c0.315,-0.315 0.315,-0.825 0,-1.14c-0.315,-0.314 -0.825,-0.314 -1.14,0l-9.059,9.065c-0.231,0.23 -0.3,0.576 -0.176,0.877c0.125,0.301 0.42,0.497 0.746,0.495l-0.007,0z" fill-rule="nonzero"/>
  </g>
 </g>
</svg>