<svg xmlns="http://www.w3.org/2000/svg" width="20" height="20" viewBox="0 0 20 20">
    <g fill="#BEBEBE" fill-rule="evenodd">
        <path fill-rule="nonzero" d="M8.555.69l.047 1.245c.022.36.341.639.719.626.377-.013.675-.312.67-.674L9.945.642C9.93.275 9.609-.013 9.225 0c-.384.014-.684.322-.67.69zm0 17.438l.047 1.245c.022.361.341.64.719.627.377-.013.675-.313.67-.674l-.046-1.245c-.014-.368-.336-.655-.72-.642-.384.013-.684.322-.67.69zm7.442-15.381l-.968.972c-.178.171-.246.421-.176.653.07.233.264.41.51.466.245.054.503-.022.672-.201l.968-.972c.179-.17.247-.42.178-.653-.07-.232-.264-.41-.51-.466-.246-.055-.503.022-.673.2h-.001zM3.235 5.122l-.967-.971c-.253-.268-.238-.68.035-.93.273-.249.703-.244.97.01l.968.972c.179.17.247.42.178.653-.07.233-.264.411-.51.466-.246.056-.503-.021-.673-.2h-.001zm16.03 3.595l-1.33.045c-.384.013-.684.322-.67.69.013.367.336.654.72.641l1.33-.047c.251-.003.482-.137.601-.35.12-.212.11-.47-.025-.673-.135-.204-.375-.322-.626-.308v.002zM1.983 11.338l-1.329-.046c-.377-.021-.667-.327-.654-.689.014-.361.326-.646.704-.642l1.33.048c.256-.003.493.13.617.344.124.215.114.478-.026.684-.139.206-.385.321-.64.301h-.002zm15.11 4.395l-1.184-1.06c-.18-.172-.443-.236-.687-.168-.244.068-.43.258-.484.496-.054.238.031.485.223.645l1.186 1.06c.28.251.72.237.982-.032s.246-.69-.034-.941h-.001zm-12.76-.086l-1.185 1.058c-.181.163-.44.22-.677.15-.238-.069-.419-.254-.475-.486-.056-.232.021-.475.203-.637l1.186-1.06c.282-.235.708-.213.964.048.255.262.248.671-.016.925v.002z"/>
        <path d="M4 10c0 3.314 2.686 6 6 6s6-2.686 6-6-2.686-6-6-6-6 2.686-6 6z"/>
    </g>
</svg>
