<svg xmlns="http://www.w3.org/2000/svg" width="57.004" height="32.934" viewBox="0 0 57.004 32.934">
    <g>
        <path fill="#b50046" d="M41.409 88.118a10.247 10.247 0 0 0-6.945-2.529H25.4a7.085 7.085 0 0 1-4.808-1.738 5.388 5.388 0 0 1 0-8.346 7.092 7.092 0 0 1 4.808-1.738h17.543v-2.73H25.4a10.226 10.226 0 0 0-6.945 2.523 7.912 7.912 0 0 0 0 12.239 10.219 10.219 0 0 0 6.945 2.523h9.062a7.068 7.068 0 0 1 4.809 1.744 5.389 5.389 0 0 1 0 8.339 7.082 7.082 0 0 1-4.809 1.74H15.56v2.736h18.9a10.243 10.243 0 0 0 6.945-2.528 7.906 7.906 0 0 0 0-12.235" transform="translate(0 .003) translate(-15.56 -71.037)"/>
        <path fill="#0059a9" d="M200.2 100.349l-13.248-29.28h-3.142l14.381 31.716a2.267 2.267 0 0 0 4.018 0l14.375-31.716h-3.141z" transform="translate(0 .003) translate(-159.583 -71.072)"/>
    </g>
</svg>
