<svg xmlns="http://www.w3.org/2000/svg" width="22" height="22" viewBox="0 0 22 22">
    <path fill="#BEBEBE" d="M13.357 17.286c-.434 0-.786-.351-.786-.786V7.857c0-.434.352-.786.786-.786.435 0 .786.352.786.786V16.5c0 .435-.351.786-.786.786zm-4.714 0c-.435 0-.786-.351-.786-.786V7.857c0-.434.351-.786.786-.786.434 0 .785.352.785.786V16.5c0 .435-.35.786-.785.786zM21.214 3.929h-3.928V2.357c0-1.3-1.05-2.357-2.34-2.357H7.072c-1.3 0-2.357 1.058-2.357 2.357V3.93H.786c-.435 0-.786.35-.786.785 0 .435.351.786.786.786h20.428c.435 0 .786-.351.786-.786 0-.434-.351-.785-.786-.785zM6.286 2.357c0-.433.352-.786.785-.786h7.876c.43 0 .767.345.767.786V3.93H6.286V2.357zM16.503 22H5.501c-1.299 0-2.357-1.058-2.357-2.357V7.845c0-.433.352-.785.786-.785.434 0 .786.352.786.785v11.798c0 .434.353.786.786.786h11.001c.434 0 .786-.352.786-.786V7.878c0-.434.351-.786.786-.786.434 0 .785.352.785.786v11.765c0 1.3-1.057 2.357-2.357 2.357z"/>
</svg>
