<svg xmlns="http://www.w3.org/2000/svg" width="20" height="20" viewBox="0 0 20 20">
    <g fill="none" fill-rule="evenodd">
        <path fill="#BEBEBE" fill-rule="nonzero" d="M11.929 15.143c-.356 0-.643-.287-.643-.643V7.43c0-.356.287-.643.643-.643.355 0 .642.287.642.643V14.5c0 .356-.287.643-.642.643zm-3.858 0c-.355 0-.642-.287-.642-.643V7.43c0-.356.287-.643.642-.643.356 0 .643.287.643.643V14.5c0 .356-.287.643-.643.643zM18.357 4.214h-3.214V2.93c0-1.064-.858-1.929-1.914-1.929H6.786c-1.064 0-1.929.865-1.929 1.929v1.285H1.643c-.356 0-.643.288-.643.643 0 .356.287.643.643.643h16.714c.356 0 .643-.287.643-.643 0-.355-.287-.643-.643-.643zM6.143 2.93c0-.355.288-.643.643-.643h6.443c.352 0 .628.282.628.643v1.285H6.143V2.93zM14.503 19H5.5c-1.063 0-1.928-.865-1.928-1.929V7.42c0-.355.288-.643.643-.643.354 0 .642.288.642.643v9.652c0 .355.289.643.643.643h9.002c.354 0 .642-.288.642-.643V7.445c0-.355.288-.643.643-.643.356 0 .643.288.643.643v9.626c0 1.064-.865 1.929-1.928 1.929z" transform="translate(-1 -1)"/>
        <path fill="#D8D8D8" fill-opacity="0" d="M0 0H20V20H0z" transform="translate(-1 -1)"/>
    </g>
</svg>
