<svg xmlns="http://www.w3.org/2000/svg" width="30" height="30" viewBox="0 0 30 30">
    <path fill="#4DB8F5" d="M12.436 22.963c-2.736.126-4.698-.755-6.425-1.835 2.015.324 4.499-.486 5.849-1.62-1.98-.216-3.132-1.224-3.69-2.825.576.09 1.17.054 1.71-.054-1.782-.594-3.06-1.71-3.113-4.014.486.234 1.025.45 1.71.504-1.332-.755-2.304-3.545-1.188-5.363 1.98 2.178 4.355 3.942 8.278 4.176-.99-4.194 4.571-6.48 6.893-3.672.99-.18 1.781-.54 2.555-.953-.324.953-.936 1.655-1.674 2.195.81-.108 1.548-.306 2.16-.612-.378.774-1.206 1.494-1.926 2.106-.108 6.928-4.535 11.661-11.14 11.967zM27.013 0H3.005C1.35 0 0 1.35 0 3.005v23.99C0 28.65 1.35 30 3.005 30h23.99C28.65 30 30 28.65 30 26.995V2.987C30 1.332 28.668 0 27.013 0z"/>
</svg>
